<svg xmlns="http://www.w3.org/2000/svg" viewBox="0 0 100 90">
  <path fill="#ff005c" fill-rule="nonzero" d="M72.36.53a26.47 26.47 0 0 0-3.2.19C57.85 2.1 52.51 8.38 50 13.78 47.48 8.38 42.15 2.1 30.83.73a26.47 26.47 0 0 0-2.72-.19h-.47C-.25.54-25.52 44.21 49.76 89.48a.62.62 0 0 0 .24.1.46.46 0 0 1 .24-.1C125.51 44.2 100.26.54 72.36.53zM50 83.76C31.87 72.56 19 60.89 11.6 49c-6-9.59-7.94-18.91-5.71-26.94A22.66 22.66 0 0 1 27.64 5.53H28c.736.016 1.47.07 2.2.16 7.38.9 12.5 4.33 15.24 10.2L50 25.62l4.53-9.73c2.73-5.87 7.86-9.3 15.24-10.2a21.6 21.6 0 0 1 2.6-.16 22.66 22.66 0 0 1 21.74 16.59c2.23 8 .25 17.34-5.72 26.94C81 60.89 68.12 72.56 50 83.76z"/>
</svg>
