<svg xmlns="http://www.w3.org/2000/svg" viewBox="0 0 512 488">
  <path fill="#ff005c" fill-rule="nonzero" d="M255.76 63.49C262.63 56 269.1 49 275.61 42c31-33.38 70-44.47 114.15-40.2C450 7.6 485 44.2 502.94 98.82c15.53 47.35 10.22 94.24-9.21 139.73-17.81 41.69-44.45 77.45-74.88 110.58-48.22 52.5-103.73 96.46-161.85 137.36a13.69 13.69 0 0 1-1.72.76c-14.79-10.91-30-21.85-44.94-33.21-47.24-36-92-74.66-130.68-119.93-28.6-33.5-53.4-69.51-67.59-111.68C-5.87 169.11-5 116.54 22.93 66.55c18-32.23 44.83-55.14 81.75-62.24 51.78-10 98.37.06 134.94 41.31 5.23 5.9 10.57 11.71 16.14 17.87z"/>
</svg>
